<?xml version="1.0" encoding="UTF-8"?>
<svg id="_レイヤー_2" data-name="レイヤー 2" xmlns="http://www.w3.org/2000/svg" viewBox="0 0 330.13 71.25">
  <g id="_レイヤー_1-2" data-name="レイヤー 1">
    <g>
      <path d="M0,51.59l.46-11.31h3.81l3.48,11.44c1.97.72,3.94.99,6.44.99,6.51,0,10.06-3.09,10.06-8.22,0-4.41-1.84-6.71-7.1-9.07l-3.16-1.38C5.19,30.02.53,25.62.53,17.73.53,8.85,7.76,3.79,18.48,3.79c5.19,0,9.86,1.38,13.35,3.75l-.53,10.78h-3.81l-3.35-10.98c-1.31-.59-2.63-.79-4.27-.79-5.72,0-9.53,2.89-9.53,7.82,0,4.54,2.5,6.97,7.17,9.07l3.42,1.58c9.86,4.41,13.48,8.35,13.48,15.78,0,8.74-6.71,14.73-19.07,14.73-5.39,0-11.37-1.38-15.32-3.94Z"/>
      <path d="M70.42,7.67h-13.48c-.13,6.58-.13,13.35-.13,20.32h8.94l.99-6.97h3.29v15.91h-3.29l-.92-6.57h-9.01v.2c0,7.3,0,14.27.13,21.11h14.79l3.02-11.05h3.68l.13,13.61h-38.99v-2.24l5.92-.59c.13-6.64.13-13.41.13-20.25v-2.89c0-6.84,0-13.61-.13-20.38l-5.92-.53v-2.24h37.61l-.07,13.08h-3.81l-2.89-10.52Z"/>
      <path d="M83.11,29.63c0-16.96,10.98-25.84,23.34-25.84s23.28,8.81,23.28,25.84-10.85,25.91-23.28,25.91-23.34-8.74-23.34-25.91ZM118.02,29.63c0-13.41-3.55-23.34-11.57-23.34s-11.64,9.93-11.64,23.34,3.62,23.41,11.64,23.41,11.57-9.86,11.57-23.41Z"/>
      <path d="M150.57,5.1h43.39l.26,14.2h-3.81l-3.35-11.64h-9.07c-.13,6.77-.13,13.61-.13,20.58v2.83c0,6.71,0,13.54.13,20.25l6.71.66v2.24h-24.79v-2.24l6.64-.66c.13-6.57.13-13.35.13-20.19v-2.89c0-6.9,0-13.74-.13-20.58h-9.07l-3.29,11.64h-3.88l.26-14.2Z"/>
      <path d="M197.25,54.22v-2.04l4.27-.39.13-13.22v-5.26c0-4.34-.07-6.9-.2-9.99l-4.87-.53v-1.58l15.12-3.95.86.59-.26,10.59v10.13c0,3.68.07,9.4.13,13.22l4.01.39v2.04h-19.2ZM201.06,5.7c0-3.02,2.56-5.33,5.65-5.33s5.66,2.3,5.66,5.33c0,3.22-2.5,5.46-5.66,5.46s-5.65-2.24-5.65-5.46Z"/>
      <path d="M228.81,39.95c-.85,1.38-1.25,2.5-1.25,3.94,0,2.1,1.45,3.22,4.93,3.22h9.6c10.85,0,14.79,4.27,14.79,10.06,0,7.17-7.89,14.07-21.57,14.07-12.16,0-15.45-3.95-15.45-8.61,0-3.09,2.24-5.98,6.9-7.96-3.22-1.18-5-3.42-5-6.44s1.38-5.85,5.65-8.88c-4.08-2.1-6.05-5.72-6.05-9.99,0-7.04,4.93-12.16,15.32-12.16,5.13,0,8.88,1.25,11.31,3.29l8.35-3.29,1.18.72v5.13l-7.89-.79c1.45,1.91,2.24,4.34,2.24,7.1,0,6.71-4.93,11.9-15.25,11.9-3.09,0-5.72-.46-7.82-1.31ZM225.98,60.93c0,4.87,3.48,7.43,9.27,7.43,8.88,0,13.22-2.96,13.22-7.89,0-2.1-1.45-4.6-5.85-4.6h-7.3c-3.55,0-5.39,0-7.17-.46-1.38,1.78-2.17,3.16-2.17,5.52ZM242.42,29.37c0-6.44-2.17-10.06-5.72-10.06s-5.79,3.68-5.79,10.06c0,6.05,1.91,9.8,5.72,9.8s5.79-3.75,5.79-9.8Z"/>
      <path d="M259.84,36.14c0-12.23,8.88-18.94,18.54-18.94,10.19,0,15.52,6.64,15.52,14.99,0,1.64-.13,2.76-.46,4.01h-22.35c.33,10.19,5.06,14.47,11.44,14.47,4.67,0,7.56-1.97,9.73-5.06l1.25.85c-2.76,5.72-7.89,8.88-14.73,8.88-11.11,0-18.94-6.9-18.94-19.2ZM279.96,33.84c3.02,0,3.95-1.51,3.95-5.59,0-5.85-2.43-8.74-5.98-8.74s-6.58,4.08-6.84,14.33h8.88Z"/>
      <path d="M313.36,38.57l.13,13.02,6.11.59v2.04h-21.43v-2.04l4.41-.46c.07-3.81.13-9.47.13-13.15v-5.46c0-4.34-.07-6.44-.26-9.6l-4.8-.53v-1.58l14.33-4.14.86.59.53,9.34c2.04-6.57,6.51-9.99,10.39-9.99,3.16,0,5.72,1.25,6.38,5.19-.13,3.02-1.58,5.33-4.87,5.33-2.5,0-4.08-1.51-5.79-3.95l-.46-.59c-2.76,2.17-4.41,5.06-5.66,9.93v5.46Z"/>
    </g>
    <g>
      <path d="M249.45,9.17l-.26.91-2.45-.18v-.37l.79-.06c.01-.71.02-1.74.02-2.42V.92l-.88-.08v-.32l2.66-.52.16.11-.04,1.93v1.98c.59-.59,1.28-.86,2.03-.86,1.5,0,2.66,1.2,2.66,3.45,0,1.97-1.16,3.5-2.81,3.5-.73,0-1.38-.31-1.89-.94ZM249.5,8.86c.32.29.64.4,1,.4.84,0,1.6-.5,1.6-2.7,0-1.87-.66-2.58-1.56-2.58-.32,0-.62.04-1.03.35v4.53Z"/>
      <path d="M259.11,3.36h2.47v.36l-.79.11-2.45,6.57c-.79,2.1-1.58,2.76-2.6,2.76-.67,0-1.29-.36-1.33-.94.1-.54.56-.78,1.03-.78s.83.29,1.13.67l.19.25c.42-.37.74-.91,1.09-1.72l-2.88-6.87-.61-.06v-.36h3.66v.36l-.96.11,1.67,4.62.77-2.11.8-2.49-1.19-.12v-.36Z"/>
      <path d="M265.1.95h4.39v.41l-1.07.1c-.04,1.17-.04,2.4-.04,3.61v2.43c0,1.82-.26,2.63-.83,3.31-.65.78-1.4,1.04-2.09,1.04-.9,0-1.42-.24-1.5-.83.11-.53.44-.72.89-.72.42,0,.64.08,1.06.55l.4.49c.18-1.04.13-2.24.13-3.93l-.05-5.94-1.29-.12v-.41Z"/>
      <path d="M274.65,8.91c-.56.71-1.29,1.2-2.22,1.2-1.2,0-1.95-.65-1.93-2.47l.04-3.57-.83-.16v-.32l2.66-.36.16.12-.07,1.85v2.63c0,.96.37,1.26.96,1.26.46,0,.88-.23,1.22-.59l.05-4.43-.8-.16v-.26l2.63-.42.13.12-.05,1.85v4.29l.77.07v.36l-2.65.16-.06-1.16Z"/>
      <path d="M282.26,9.91v-.37l.76-.07.02-2.41v-1.74c0-.92-.26-1.26-.83-1.26-.36,0-.85.23-1.37.68v2.31l.02,2.42.7.06v.37h-3.48v-.37l.79-.07c.01-.71.02-1.74.02-2.41v-1c0-.78-.01-1.18-.05-1.75l-.88-.1v-.29l2.61-.76.16.11.07,1.07c.79-.91,1.45-1.19,2.24-1.19,1.14,0,1.92.74,1.92,2.31v1.58c0,.71.01,1.73.04,2.42l.72.06v.37h-3.48Z"/>
      <path d="M287.96,7.3c-.16.25-.23.46-.23.72,0,.38.26.59.9.59h1.75c1.98,0,2.7.78,2.7,1.83,0,1.31-1.44,2.57-3.93,2.57-2.22,0-2.82-.72-2.82-1.57,0-.56.41-1.09,1.26-1.45-.59-.22-.91-.62-.91-1.18s.25-1.07,1.03-1.62c-.74-.38-1.1-1.04-1.1-1.82,0-1.28.9-2.22,2.79-2.22.94,0,1.62.23,2.06.6l1.52-.6.22.13v.94l-1.44-.14c.26.35.41.79.41,1.3,0,1.22-.9,2.17-2.78,2.17-.56,0-1.04-.08-1.43-.24ZM287.44,11.13c0,.89.64,1.35,1.69,1.35,1.62,0,2.41-.54,2.41-1.44,0-.38-.26-.84-1.07-.84h-1.33c-.65,0-.98,0-1.31-.08-.25.32-.4.58-.4,1.01ZM290.44,5.37c0-1.18-.4-1.83-1.04-1.83s-1.06.67-1.06,1.83c0,1.1.35,1.79,1.04,1.79s1.06-.68,1.06-1.79Z"/>
      <path d="M293.73,9.91v-.37l.83-.07.02-2.41V.91l-.88-.07v-.32l2.69-.52.18.11-.05,1.93v5.01c0,.78.01,1.63.04,2.41l.82.07v.37h-3.65Z"/>
      <path d="M298.15,6.61c0-2.23,1.62-3.45,3.38-3.45,1.86,0,2.83,1.21,2.83,2.73,0,.3-.02.5-.08.73h-4.08c.06,1.86.92,2.64,2.09,2.64.85,0,1.38-.36,1.78-.92l.23.16c-.5,1.04-1.44,1.62-2.69,1.62-2.03,0-3.45-1.26-3.45-3.5ZM301.82,6.19c.55,0,.72-.28.72-1.02,0-1.07-.44-1.59-1.09-1.59s-1.2.74-1.25,2.61h1.62Z"/>
      <path d="M312.62,9.49l1.16-.13-.72-2.29h-2.83l-.71,2.28,1.1.16v.41h-2.73v-.41l1.01-.16,2.82-8.43h1.25l2.9,8.49.84.08v.42h-4.09v-.42ZM310.36,6.64h2.55l-1.3-4.07-1.26,4.07Z"/>
      <path d="M317.31.95h4.25v.41l-1.07.1c-.02,1.22-.02,2.47-.02,3.72v.52c0,1.24,0,2.47.02,3.71l1.07.11v.41h-4.25v-.41l1.08-.11c.04-1.21.04-2.45.04-3.69v-.53c0-1.25,0-2.48-.04-3.72l-1.08-.1v-.41Z"/>
    </g>
  </g>
</svg>